<?xml version="1.0" standalone="no"?>
<!DOCTYPE svg PUBLIC "-//W3C//DTD SVG 1.1//EN" "http://www.w3.org/Graphics/SVG/1.1/DTD/svg11.dtd">
<svg xmlns="http://www.w3.org/2000/svg">
<metadata>Copyright (C) 2025 by original authors @ fontello.com</metadata>
<defs>
<font id="icodex-ui-fonts" horiz-adv-x="1000" >
<font-face font-family="icodex-ui-fonts" font-weight="400" font-stretch="normal" units-per-em="1000" ascent="850" descent="-150" />
<missing-glyph horiz-adv-x="1000" />
<glyph glyph-name="gear" unicode="&#xe800;" d="M667 350a167 167 0 1 0-334 0 167 167 0 0 0 334 0z m-63 0a104 104 0 1 1-208 0 104 104 0 0 1 208 0z m-104 458c11 0 22 0 33-1 32-2 56-25 63-54l15-61c1-3 4-7 9-9 11-3 21-8 31-12 5-3 10-2 13 0l53 32c25 15 59 15 83-6 17-15 32-30 47-47 21-24 21-58 6-83l-32-53c-2-3-3-8 0-13 4-10 9-20 12-31 2-5 6-8 9-9l61-15c29-7 52-31 54-63 2-22 2-44 0-66-2-32-25-56-54-63l-61-15c-3-1-7-4-9-9-3-11-8-21-12-31-3-5-2-10 0-13l32-53c15-25 15-59-6-83-15-16-30-32-47-47-24-21-58-21-83-6l-53 33c-3 1-8 2-13-1a359 359 0 0 0-31-12c-5-2-8-6-9-9l-15-61c-7-29-31-52-63-54-22-2-44-2-66 0-32 2-56 25-63 54l-15 61c-1 3-4 7-9 9a339 339 0 0 0-31 12c-5 3-10 2-13 1l-53-33c-25-15-59-15-83 6-16 15-32 31-47 47-21 24-21 58-6 83l33 53c1 3 2 8-1 13a359 359 0 0 0-12 31c-2 5-6 8-9 9l-61 15c-28 7-52 31-54 63a465 465 0 0 0 0 66c2 32 26 56 54 63l61 15c3 1 7 4 9 9 4 11 8 21 12 31 3 5 2 10 1 13l-33 53c-15 25-15 59 6 83 15 17 31 32 47 47 24 21 58 21 83 6l53-32c3-2 8-3 13 0 10 4 21 9 31 12 5 2 8 6 9 9l15 61c7 29 31 52 63 54 11 1 22 1 33 1z m-29-63c-2 0-5-2-6-7l-15-60a76 76 0 0 0-49-53 298 298 0 0 1-25-11 76 76 0 0 0-72 3l-53 33c-4 2-8 1-10 0a407 407 0 0 1-40-41c-2-2-3-6 0-10l32-53c13-22 14-49 3-72a298 298 0 0 1-10-25 76 76 0 0 0-54-49l-60-14c-5-2-7-5-7-7a401 401 0 0 1 0-58c0-2 2-5 7-6l60-15a76 76 0 0 0 54-49c3-8 6-17 10-25 11-23 10-50-3-72l-32-53c-3-4-2-8 0-10 12-14 26-28 40-40 2-2 6-3 10 0l53 32a76 76 0 0 0 72 3c8-4 17-7 25-10a76 76 0 0 0 49-54l15-60c1-5 4-7 6-7a401 401 0 0 1 58 0c2 0 5 2 7 7l14 60a76 76 0 0 0 49 54 284 284 0 0 1 25 10 76 76 0 0 0 72-3l53-32c4-3 8-2 10 0 14 12 28 26 41 40 1 2 2 6 0 10l-33 53a76 76 0 0 0-3 72c4 8 7 17 11 25a76 76 0 0 0 53 49l60 15c5 1 7 4 7 6a401 401 0 0 1 0 58c0 2-2 5-7 7l-60 14c-26 7-45 26-54 49a274 274 0 0 1-10 25 76 76 0 0 0 3 72l33 53c2 4 1 8 0 10a407 407 0 0 1-41 41c-2 1-6 2-10 0l-53-33a76 76 0 0 0-72-3 287 287 0 0 1-25 11 77 77 0 0 0-49 53l-14 60c-2 5-5 7-7 7a401 401 0 0 1-58 0z" horiz-adv-x="1000" />

<glyph glyph-name="icodex-folder-plus" unicode="&#xe801;" d="M167 767c-69 0-125-57-125-125v-542c0-68 56-125 125-125h666c69 0 125 57 125 125v417c0 68-56 125-125 125h-329a42 42 0 0 1 0 0c-14 0-28 7-35 18a42 42 0 0 1-1 1l-33 49c-23 36-63 57-105 57h-163z m0-84h163c15 0 28-7 35-18a42 42 0 0 1 1-1l33-49h0v0h0c23-36 63-57 106-57h328c24 0 42-18 42-41v-417c0-23-18-42-42-42h-666c-24 0-42 19-42 42v542c0 23 18 41 42 41z m333-208a42 42 0 0 1-42-42v-83h-83a42 42 0 0 1-42-42 42 42 0 0 1 42-41h83v-84a42 42 0 0 1 42-41 42 42 0 0 1 42 41v84h83a42 42 0 0 1 42 41 42 42 0 0 1-42 42h-83v83a42 42 0 0 1-42 42z" horiz-adv-x="1000" />

<glyph glyph-name="file-symlink-file" unicode="&#xe802;" d="M125 725a83 83 0 0 0 83 83h416a83 83 0 0 0 59-24l168-167a83 83 0 0 0 24-59v-583a83 83 0 0 0-83-83h-594a31 31 0 0 0 0 62h594a21 21 0 0 1 21 21v521h-167a83 83 0 0 0-83 83v167h-355a21 21 0 0 1-20-21v-260a31 31 0 0 0-63 0z m263-479l-88 93a31 31 0 0 0 16 52 31 31 0 0 0 30-9l137-146a31 31 0 0 0 0-43l-137-146a31 31 0 0 0-53 13 31 31 0 0 0 7 30l88 93h-218a108 108 0 0 1-107-108v-131a31 31 0 0 0-63 0v131a170 170 0 0 0 170 171z m237 500v-167a21 21 0 0 1 21-21h167a21 21 0 0 1-7 14l-167 168a21 21 0 0 1-14 6z" horiz-adv-x="1000" />

<glyph glyph-name="file-diff" unicode="&#xe803;" d="M521 569a31 31 0 0 1-63 0v-94h-93a31 31 0 0 1 0-62h93v-94a31 31 0 0 1 63 0v94h94a31 31 0 0 1 0 62h-94v94z m-156-386a31 31 0 0 1 0-62h250a31 31 0 0 1 0 62h-250z m-157 625h416a83 83 0 0 0 59-24l168-167a83 83 0 0 0 24-59v-583a83 83 0 0 0-83-83h-584a83 83 0 0 0-83 83v750a83 83 0 0 0 83 83z m-20-83v-750a21 21 0 0 1 20-21h584a21 21 0 0 1 21 21v583a21 21 0 0 1-7 14l-167 168a21 21 0 0 1-15 6h-416a21 21 0 0 1-20-21z" horiz-adv-x="1000" />

<glyph glyph-name="commit" unicode="&#xe804;" d="M0 360a31 31 0 0 0 31 32h209a31 31 0 0 0 0-63h-209a31 31 0 0 0-31 31z m729 0a31 31 0 0 0 31 32h209a31 31 0 0 0 0-63h-209a31 31 0 0 0-31 31z m-229-250a250 250 0 1 0 0 500 250 250 0 0 0 0-500z m0 63a188 188 0 1 1 0 375 188 188 0 0 1 0-375z" horiz-adv-x="1000" />

<glyph glyph-name="chevron-down" unicode="&#xe805;" d="M218 508a31 31 0 0 1 0-45l260-260a31 31 0 0 1 44 0l261 260a31 31 0 1 1-45 45l-238-239-238 239a31 31 0 0 1-44 0z" horiz-adv-x="1000" />

<glyph glyph-name="arrow-right" unicode="&#xe806;" d="M551 57a31 31 0 0 0 0 44l207 207h-602a31 31 0 0 0 0 63h602l-207 207a31 31 0 0 0 13 53 31 31 0 0 0 31-9l260-260a31 31 0 0 0 0-44l-260-261a31 31 0 0 0-44 0z" horiz-adv-x="1000" />

<glyph glyph-name="arrow-left" unicode="&#xe807;" d="M449 57a31 31 0 0 0-44 0l-260 261a31 31 0 0 0 0 44l260 260a31 31 0 0 0 53-13 31 31 0 0 0-9-31l-207-207h602a31 31 0 0 0 0-63h-602l207-207a31 31 0 0 0 0-44z" horiz-adv-x="1000" />

<glyph glyph-name="move-to-bottom" unicode="&#xe808;" d="M167-35a31 31 0 0 0 31 31h604a31 31 0 0 0 0-63h-604a31 31 0 0 0-31 32z m40 470a31 31 0 0 0 44 0l207-207v507a31 31 0 0 0 63 0v-507l207 207a31 31 0 1 0 44-45l-260-260a31 31 0 0 0-44 0l-261 260a31 31 0 0 0 0 45z" horiz-adv-x="1000" />

<glyph glyph-name="location" unicode="&#xe809;" d="M500 288a104 104 0 1 1 0 208 104 104 0 0 1 0-208z m295 419h0c162-163 162-426 0-589l-225-225a98 98 0 0 0-139 0l-224 224-2 1c-162 163-162 426 0 589 163 163 427 163 590 0z m-545-44v0a354 354 0 0 1 0-501l1-1 0 0 224-224a36 36 0 0 1 50 0l225 225a354 354 0 0 1-1 499 354 354 0 0 1-499 2z" horiz-adv-x="1000" />

<glyph glyph-name="link-external" unicode="&#xe80a;" d="M646 756a31 31 0 0 0 31 32h229a31 31 0 0 0 32-32v-229a31 31 0 0 0-63 0v154l-259-259a31 31 0 1 0-44 44l259 259h-154a31 31 0 0 0-31 31z m-542-83c0 40 33 73 73 73h354a31 31 0 0 0 0-63h-354a10 10 0 0 1-10-10v-646c0-6 4-10 10-10h646a10 10 0 0 1 10 10v354a31 31 0 0 0 63 0v-354a73 73 0 0 0-73-73h-646a73 73 0 0 0-73 73v646z" horiz-adv-x="1000" />

<glyph glyph-name="link" unicode="&#xe80b;" d="M616 698a164 164 0 1 0 232-232l-151-151a164 164 0 0 0-245 14 31 31 0 0 1-49-38 227 227 0 0 1 338-20l151 151a227 227 0 1 1-320 320l-125-125a31 31 0 0 1 44-44l125 125z m-313-313a164 164 0 0 0 245-14 31 31 0 0 1 50 38 227 227 0 0 1-339 21l-151-152a227 227 0 1 1 320-320l125 125a31 31 0 1 1-44 44l-125-125a164 164 0 0 0-232 232l151 151z" horiz-adv-x="1000" />

<glyph glyph-name="key" unicode="&#xe80c;" d="M698 496a52 52 0 1 1 0 104 52 52 0 0 1 0-104z m-42 354a344 344 0 1 0-106-671l-68-68a73 73 0 0 0-51-21h-46a10 10 0 0 1-10-11v-60a37 37 0 0 0-11-26l-9-9a31 31 0 0 0-22-9h-114a10 10 0 0 1-11-10v-42a73 73 0 0 0-73-73h-62a73 73 0 0 0-73 73v118c0 19 8 38 21 52l308 307a344 344 0 0 0 327 450z m-281-344a281 281 0 0 1 19-102 31 31 0 0 0-7-34l-321-321a10 10 0 0 1-3-8v-118c0-6 4-11 10-11h62a10 10 0 0 1 11 11v42c0 40 33 73 73 73h94v41c0 40 32 73 72 73h46a10 10 0 0 1 7 3l82 82a31 31 0 0 0 34 7 281 281 0 1 1-179 262z" horiz-adv-x="1000" />

<glyph glyph-name="kebab-horizontal" unicode="&#xe80d;" d="M833 267a83 83 0 1 0 0 166 83 83 0 0 0 0-166z m-583 83a83 83 0 1 0-167 0 83 83 0 0 0 167 0z m333 0a83 83 0 1 0-166 0 83 83 0 0 0 166 0z" horiz-adv-x="1000" />

<glyph glyph-name="info" unicode="&#xe80e;" d="M542 538a42 42 0 1 0-84 0 42 42 0 0 0 84 0z m-125-157a31 31 0 0 0 31 32h62a31 31 0 0 0 32-32v-177h31a31 31 0 0 0 0-62h-125a31 31 0 0 0 0 62h31v146h-31a31 31 0 0 0-31 31z m83 427c253 0 458-205 458-458s-205-458-458-458-458 205-458 458 205 458 458 458z m-396-458a396 396 0 0 1 396-396 396 396 0 0 1 396 396 396 396 0 0 1-396 396 396 396 0 0 1-396-396z" horiz-adv-x="1000" />

<glyph glyph-name="inbox" unicode="&#xe80f;" d="M200 701a73 73 0 0 0 67 45h466c29 0 56-18 67-45l156-367c2-4 2-8 2-13v-315a73 73 0 0 0-73-73h-770a73 73 0 0 0-73 73v313c0 4 1 8 2 12l156 370z m67-18a10 10 0 0 1-9-6l-138-327h213a31 31 0 0 0 27-15l64-110h152l64 110a31 31 0 0 0 26 15l214 2-138 325a10 10 0 0 1-9 6z m629-393l-211-2-64-110a31 31 0 0 0-27-15h-188a31 31 0 0 0-27 15l-64 110h-211v-282c0-5 5-10 11-10h770a10 10 0 0 1 11 10z" horiz-adv-x="1000" />

<glyph glyph-name="icodex-arrow-left" unicode="&#xe810;" d="M395 850a53 42 90 0 1-30-17l-353-446a54 42 90 0 1 0-75l353-446a54 42 90 0 1 59 0l0 0a54 42 90 0 1 0 75l-280 355h814a54 42 90 0 1 0 107h-814l280 354a53 42 90 0 1 12 53 53 42 90 0 1-41 40z" horiz-adv-x="1000" />

<glyph glyph-name="icodex-alert" unicode="&#xe811;" d="M500 850c-37 0-73-20-94-61l-391-756c-42-81 10-183 94-183h782c84 0 136 102 94 183l-391 756c-21 41-57 61-94 61z m3-73a49 44 90 0 0 35-24l391-757a49 44 90 0 0-38-73h-782a49 44 90 0 0-38 73l391 757a49 44 90 0 0 35 24 49 44 90 0 0 6 0z m-4-244a37 33 90 0 1-31-37v-219a37 33 90 0 1 65 0v219a37 33 90 0 1-34 37z m-2-390a49 44 90 0 1-41-49 49 44 90 0 1 87 0 49 44 90 0 1-46 49z" horiz-adv-x="1000" />

<glyph glyph-name="home" unicode="&#xe812;" d="M460 742a63 63 0 0 0 80 0l313-265a63 63 0 0 0 22-48v-391a63 63 0 0 0-62-63h-240a31 31 0 0 0-31 31v261h-84v-261a31 31 0 0 0-31-31h-239a63 63 0 0 0-63 63v391c0 19 8 36 22 48z m40-48l-312-265v-391h208v260a31 31 0 0 0 31 31h146a31 31 0 0 0 31-31v-260h209v391z" horiz-adv-x="1000" />

<glyph glyph-name="git-branch" unicode="&#xe813;" d="M625 652a135 135 0 1 0 271 0 135 135 0 0 0-271 0z m-521-604a135 135 0 1 0 271 0 135 135 0 0 0-271 0z m0 604a135 135 0 1 0 271 0 135 135 0 0 0-271 0z m136-73a73 73 0 1 1 0 146 73 73 0 0 1 0-146z m0-604a73 73 0 1 1 0 146 73 73 0 0 1 0-146z m520 604a73 73 0 1 1 0 146 73 73 0 0 1 0-146z m-520-427a31 31 0 0 0-32 31v334a31 31 0 0 0 63 0v-334a31 31 0 0 0-31-31z m489 333v42h63v-42a156 156 0 0 0-157-156h-291a73 73 0 0 1-73-73h-63a135 135 0 0 0 136 136h291a94 94 0 0 1 94 93z" horiz-adv-x="1000" />

<glyph glyph-name="file-zip" unicode="&#xe814;" d="M208 746a21 21 0 0 1-20-21v-750a21 21 0 0 1 20-21h73a31 31 0 0 0 0-62h-73a83 83 0 0 0-83 83v750a83 83 0 0 0 83 83h416a83 83 0 0 0 59-24l168-167a83 83 0 0 0 24-59v-583a83 83 0 0 0-83-83h-115a31 31 0 0 0 0 62h115a21 21 0 0 1 21 21v583a21 21 0 0 1-7 14l-167 168a21 21 0 0 1-15 6h-416z m271-552a31 31 0 0 0 31 31h42a31 31 0 0 0 0-62h-42a31 31 0 0 0-31 31z m31 156a31 31 0 0 1 0-62h42a31 31 0 0 1 0 62h-42z m-31 94a31 31 0 0 0 31 31h42a31 31 0 0 0 0-62h-42a31 31 0 0 0-31 31z m31 156a31 31 0 0 1 0-62h42a31 31 0 0 1 0 62h-42z m-31 94a31 31 0 0 0 31 31h42a31 31 0 0 0 0-62h-42a31 31 0 0 0-31 31z m-73-406a31 31 0 0 1 0-63h42a31 31 0 0 1 0 63h-42z m-31 93a31 31 0 0 0 31 32h42a31 31 0 0 0 0-63h-42a31 31 0 0 0-31 31z m31 157a31 31 0 0 1 0-63h42a31 31 0 0 1 0 63h-42z m-31 93a31 31 0 0 0 31 32h42a31 31 0 0 0 0-63h-42a31 31 0 0 0-31 31z m83-489h42a83 83 0 0 0 83-84v-177a31 31 0 0 0-31-31h-146a31 31 0 0 0-31 31v177a83 83 0 0 0 83 84z m-20-84v-146h83v146a21 21 0 0 1-21 21h-42a21 21 0 0 1-20-21z" horiz-adv-x="1000" />

<glyph glyph-name="file-media" unicode="&#xe815;" d="M906-46h-812a73 73 0 0 0-73 73v646c0 40 33 73 73 73h812c41 0 73-33 73-73v-646a73 73 0 0 0-73-73z m-812 729a10 10 0 0 1-11-10v-646c0-6 5-10 11-10h132l357 376a73 73 0 0 0 105 1l229-229v508a10 10 0 0 1-11 10z m823-656v50l-273 273a10 10 0 0 1-8 3 10 10 0 0 1-7-3l-317-333h594a10 10 0 0 1 11 10z m-479 438a135 135 0 1 0-271 0 135 135 0 0 0 271 0z m-63 0a73 73 0 1 1-146 0 73 73 0 0 1 146 0z" horiz-adv-x="1000" />

<glyph glyph-name="file-directory" unicode="&#xe816;" d="M83 652c0 40 33 73 73 73h207c25 0 47-12 61-32l58-86c2-3 5-4 9-4h353c40 0 73-33 73-73v-482a73 73 0 0 0-73-73h-688a73 73 0 0 0-73 73z m73 11a10 10 0 0 1-10-11v-604c0-6 5-10 10-10h688a10 10 0 0 1 10 10v482a10 10 0 0 1-10 10h-353a73 73 0 0 0-60 32l-59 86a11 11 0 0 1-9 5z" horiz-adv-x="1000" />

<glyph glyph-name="file-code" unicode="&#xe817;" d="M125 725a83 83 0 0 0 83 83h416a83 83 0 0 0 59-24l168-167a83 83 0 0 0 24-59v-583a83 83 0 0 0-83-83h-594a31 31 0 0 0 0 62h594a21 21 0 0 1 21 21v521h-167a83 83 0 0 0-83 83v167h-355a21 21 0 0 1-20-21v-260a31 31 0 0 0-63 0z m500 21v-167a21 21 0 0 1 21-21h167a21 21 0 0 1-7 14l-167 168a21 21 0 0 1-14 6z m-436-406a31 31 0 0 0-2-44l-110-102 110-102a31 31 0 1 0-42-46l-135 125a31 31 0 0 0 0 46l135 125a31 31 0 0 0 44-2z m166-44a31 31 0 1 0 42 46l135-125a31 31 0 0 0 0-46l-135-125a31 31 0 1 0-42 46l110 102-110 102z" horiz-adv-x="1000" />

<glyph glyph-name="diff" unicode="&#xe818;" d="M510 704a31 31 0 0 0 32-31v-177h177a31 31 0 0 0 0-63h-177v-177a31 31 0 0 0-63 0v177h-177a31 31 0 0 0 0 63h177v177a31 31 0 0 0 31 31z m-237-656a31 31 0 0 0 32 31h414a31 31 0 0 0 0-62h-414a31 31 0 0 0-32 31z" horiz-adv-x="1000" />

<glyph glyph-name="copy" unicode="&#xe819;" d="M293 694c0 40 32 73 73 73h478c40 0 73-33 73-73v-479a73 73 0 0 0-73-73h-478a73 73 0 0 0-73 73z m73 10a10 10 0 0 1-11-10v-479c0-6 5-11 11-11h478a10 10 0 0 1 10 11v479a10 10 0 0 1-10 10z m-283-302a73 73 0 0 0 73 73h63a31 31 0 1 0 0-62h-63a10 10 0 0 1-10-11l0-396c0-5 5-10 10-10h396a10 10 0 0 1 11 10v63a31 31 0 1 0 62 0v-63a73 73 0 0 0-73-73h-396a73 73 0 0 0-73 73l0 396z" horiz-adv-x="1000" />

<glyph glyph-name="command-palette" unicode="&#xe81a;" d="M127 63l287 287-287 287a31 31 0 0 0 44 45l309-310a31 31 0 0 0 0-44l-309-309a31 31 0 0 0-44 44z m342-25a31 31 0 0 1 0-63h396a31 31 0 0 1 0 63h-396z" horiz-adv-x="1000" />

<glyph glyph-name="codescan" unicode="&#xe81b;" d="M499 560a31 31 0 0 1 0-45l103-102-103-103a31 31 0 1 1 44-45l125 125a31 31 0 0 1 0 45l-125 125a31 31 0 0 1-44 0z m-123-45a31 31 0 0 1-44 45l-125-125a31 31 0 0 1 0-45l125-125a31 31 0 0 1 44 45l-103 103 103 102z m62 335c241 0 437-196 437-437a436 436 0 0 0-107-287l181-181a31 31 0 0 0-13-53 31 31 0 0 0-31 9l-181 181a436 436 0 0 0-286-107c-242 0-438 196-438 438s196 437 438 437z m-375-437a375 375 0 0 1 375-375 375 375 0 0 1 375 375 375 375 0 0 1-375 375 375 375 0 0 1-375-375z" horiz-adv-x="1000" />

<glyph glyph-name="chevron-up" unicode="&#xe81c;" d="M783 193a31 31 0 0 0-45 0l-238 238-238-238a31 31 0 1 0-44 44l260 260a31 31 0 0 0 44 0l261-260a31 31 0 0 0 0-44z" horiz-adv-x="1000" />

<glyph glyph-name="chevron-right" unicode="&#xe81d;" d="M363 68a31 31 0 0 0 0 44l239 238-239 238a31 31 0 0 0 1 44 31 31 0 0 0 44 1l260-261a31 31 0 0 0 0-44l-260-260a31 31 0 0 0-45 0z" horiz-adv-x="1000" />

<glyph glyph-name="chevron-left" unicode="&#xe81e;" d="M637 633a31 31 0 0 0 0-45l-239-238 239-238a31 31 0 0 0-14-53 31 31 0 0 0-30 9l-261 260a31 31 0 0 0 0 44l261 261a31 31 0 0 0 44 0z" horiz-adv-x="1000" />

<glyph glyph-name="upload" unicode="&#xe81f;" d="M167 6v94a31 31 0 0 0 62 0v-94c0-5 5-10 11-10h520a10 10 0 0 1 11 10v94a31 31 0 0 0 62 0v-94a73 73 0 0 0-73-73h-520a73 73 0 0 0-73 73z m51 447a31 31 0 0 0 0 44l260 261a31 31 0 0 0 44 0l261-261a31 31 0 1 0-45-44l-207 207v-508a31 31 0 0 0-62 0v508l-207-207a31 31 0 0 0-44 0z" horiz-adv-x="1000" />

<glyph glyph-name="typography" unicode="&#xe820;" d="M434 225h-285l-67-188a31 31 0 1 0-59 22l211 584a61 61 0 0 0 115 0l212-584a31 31 0 1 0-59-22z m189 212c38 71 112 92 178 92 44 0 87-13 120-37 34-24 58-60 58-106v-338a31 31 0 0 0-62 0v2l-2-1c-37-21-87-32-144-32-44 0-85 13-116 39-32 27-51 66-51 113 0 38 14 77 49 107 33 29 83 45 148 45h116v65c0 21-11 41-32 56-22 15-52 25-84 25-55 0-101-18-123-59a31 31 0 0 0-55 29z m-212-149l-119 330-120-330z m506-30h-116c-55 0-89-13-108-30a76 76 0 0 1-27-59c0-29 12-50 29-65 18-15 44-25 76-25 49 0 88 10 112 24 25 15 34 31 34 48z" horiz-adv-x="1000" />

<glyph glyph-name="terminal" unicode="&#xe821;" d="M385 350a31 31 0 0 0-9-22l-114-115a31 31 0 0 0-44 45l92 92-92 93a31 31 0 1 0 44 44l114-115c6-6 9-14 9-22z m84-83a31 31 0 0 1 0-63h208a31 31 0 0 1 0 63h-208z m-469 385c0 40 33 73 73 73h854c40 0 73-33 73-73v-604a73 73 0 0 0-73-73h-854a73 73 0 0 0-73 73z m73 11a10 10 0 0 1-10-11v-604c0-6 4-10 10-10h854a10 10 0 0 1 11 10v604a10 10 0 0 1-11 11z" horiz-adv-x="1000" />

<glyph glyph-name="tab" unicode="&#xe822;" d="M917 673a31 31 0 0 1-63 0v-625a31 31 0 0 1 63 0v625z m-405-595a31 31 0 1 0-44 44l207 207h-602a31 31 0 0 0 0 63h602l-207 207a31 31 0 0 0 44 44l260-260a31 31 0 0 0 0-45l-260-260z" horiz-adv-x="1000" />

<glyph glyph-name="sidebar-expand" unicode="&#xe823;" d="M470 453l-103-103 103-103a31 31 0 0 0-14-53 31 31 0 0 0-30 9l-125 125a31 31 0 0 0 0 44l125 125a31 31 0 0 0 53-13 31 31 0 0 0-9-31z m-314 314h688c40 0 73-33 73-73v-688a73 73 0 0 0-73-73h-688a73 73 0 0 0-73 73v688c0 40 33 73 73 73z m-10-73v-688c0-5 5-10 10-10h469v708h-469a10 10 0 0 1-10-10z m542-698h156a10 10 0 0 1 10 10v688a10 10 0 0 1-10 10h-156z" horiz-adv-x="1000" />

<glyph glyph-name="sidebar-collapse" unicode="&#xe824;" d="M301 247l103 103-103 103a31 31 0 0 0 13 53 31 31 0 0 0 31-9l125-125a31 31 0 0 0 0-44l-125-125a31 31 0 0 0-43 1 31 31 0 0 0-1 43z m-145 520h688c40 0 73-33 73-73v-688a73 73 0 0 0-73-73h-688a73 73 0 0 0-73 73v688c0 40 33 73 73 73z m-10-73v-688c0-5 5-10 10-10h469v708h-469a10 10 0 0 1-10-10z m542-698h156a10 10 0 0 1 10 10v688a10 10 0 0 1-10 10h-156z" horiz-adv-x="1000" />

<glyph glyph-name="share" unicode="&#xe825;" d="M229 444v-438c0-5 5-10 11-10h520a10 10 0 0 1 11 10v438a10 10 0 0 1-11 10h-104a31 31 0 0 0 0 63h104c41 0 73-33 73-73v-438a73 73 0 0 0-73-73h-520a73 73 0 0 0-73 73v438c0 40 32 73 73 73h104a31 31 0 0 0 0-63h-104a10 10 0 0 1-11-10z m293 355l136-135a31 31 0 0 0-14-53 31 31 0 0 0-31 9l-82 82v-446a31 31 0 0 0-62 0v446l-82-82a31 31 0 0 0-44 0 31 31 0 0 0 0 44l135 135a31 31 0 0 0 44 0z" horiz-adv-x="1000" />

<glyph glyph-name="trash" unicode="&#xe826;" d="M667 777v-52h218a31 31 0 0 0 0-62h-770a31 31 0 0 0 0 62h218v52c0 40 33 73 73 73h188c40 0 73-33 73-73z m-271 0v-52h208v52a10 10 0 0 1-10 11h-188a10 10 0 0 1-10-11z m-188-184a31 31 0 1 1-62-6l59-609a73 73 0 0 1 72-66h446a73 73 0 0 1 72 66l59 609a31 31 0 0 1-62 6l-59-609a10 10 0 0 0-10-9h-446a10 10 0 0 0-10 9l-59 609z m176-55a31 31 0 0 0 33-30l21-354a31 31 0 1 0-63-4l-21 354a31 31 0 0 0 30 34z m262-34a31 31 0 1 1-63 4l-20-354a31 31 0 0 1 62-4l21 354z" horiz-adv-x="1000" />

<glyph glyph-name="repo-push" unicode="&#xe828;" d="M198 850a115 115 0 0 1-115-115v-687a115 115 0 0 1 115-115h458a31 31 0 0 1 0 63h-458c-29 0-52 23-52 52v52a63 63 0 0 0 62 63h302a31 31 0 0 1 0 62h-302c-22 0-44-6-62-17v527c0 29 23 53 52 53h573v-292a31 31 0 0 1 62 0v323a31 31 0 0 1-31 31h-604z m635-579l92-99a31 31 0 0 1 46 43l-146 156a31 31 0 0 1-46 0l-146-156a31 31 0 1 1 46-43l92 99v-390a31 31 0 0 1 62 0v390z" horiz-adv-x="1000" />

<glyph glyph-name="repo" unicode="&#xe829;" d="M125 735a115 115 0 0 0 115 115h604a31 31 0 0 0 31-31v-854a31 31 0 0 0-31-32h-250a31 31 0 0 0 0 63h219v167h-563a63 63 0 0 1-62-63v-31c0-30 17-56 43-67a31 31 0 0 0-25-57 136 136 0 0 0-81 124z m688 53h-573c-29 0-52-24-52-53v-527a125 125 0 0 0 62 17h563z m-521-698a10 10 0 0 0 10 10h208a10 10 0 0 0 11-10v-209a10 10 0 0 0-17-9l-92 67a10 10 0 0 1-12 0l-92-67a10 10 0 0 0-16 9v209z" horiz-adv-x="1000" />

<glyph glyph-name="question" unicode="&#xe82a;" d="M457 506a60 60 0 0 1-20-24 31 31 0 0 0-56 28c8 17 21 34 42 48 20 13 46 21 77 21 27 0 57-8 81-26a102 102 0 0 0 41-83c0-43-21-72-42-92-8-8-17-15-24-22l-7-5a180 180 0 0 1-18-17v-57a31 31 0 1 0-62 0v62c0 9 3 21 10 30 9 12 20 22 30 30l8 6 0 0c7 6 13 12 19 18 16 14 24 28 24 47a40 40 0 0 1-17 33c-11 9-27 14-43 14-21 0-34-5-43-11z m85-364a42 42 0 1 0-84 0 42 42 0 0 0 84 0z m-42 666c253 0 458-205 458-458s-205-458-458-458-458 205-458 458 205 458 458 458z m-396-458a396 396 0 0 1 396-396 396 396 0 0 1 396 396 396 396 0 0 1-396 396 396 396 0 0 1-396-396z" horiz-adv-x="1000" />

<glyph glyph-name="plus-circle" unicode="&#xe82b;" d="M531 527a31 31 0 0 1-62 0v-146h-146a31 31 0 0 1 0-62h146v-146a31 31 0 0 1 62 0v146h146a31 31 0 0 1 0 62h-146v146z m-31 281c253 0 458-205 458-458s-205-458-458-458-458 205-458 458 205 458 458 458z m-396-458a396 396 0 0 1 396-396 396 396 0 0 1 396 396 396 396 0 0 1-396 396 396 396 0 0 1-396-396z" horiz-adv-x="1000" />

<glyph glyph-name="person" unicode="&#xe82c;" d="M500 746a229 229 0 0 0 129-419 375 375 0 0 0 246-341 31 31 0 1 0-63-2 313 313 0 0 1-624 0 31 31 0 0 0-63 2 375 375 0 0 0 246 341 229 229 0 0 0 129 419z m-167-229a167 167 0 1 1 334 0 167 167 0 0 1-334 0z" horiz-adv-x="1000" />

<glyph glyph-name="pencil" unicode="&#xe82d;" d="M719 759a73 73 0 0 0 103 0l108-107a73 73 0 0 0 0-103l-116-117-1 0-451-431a73 73 0 0 0-29-17l-230-70a31 31 0 0 0-31 8 31 31 0 0 0-8 31l70 229a73 73 0 0 0 19 32l450 429z m-523-591a11 11 0 0 1-3-4l-52-173 174 53a11 11 0 0 1 4 2l428 409-122 122-429-409z m596 330l94 95a10 10 0 0 1 0 14l-108 108a10 10 0 0 1-14 0l-95-94z" horiz-adv-x="1000" />

<glyph glyph-name="paper-airplane" unicode="&#xe82e;" d="M63 768a57 57 0 0 0 63 9l805-384a48 48 0 0 0 0-86l-805-384a57 57 0 0 0-82 61l60 366-60 366a57 57 0 0 0 19 52z m99-449l-54-335 768 366-768 366 54-335h307a31 31 0 0 0 0-62z" horiz-adv-x="1000" />

<glyph glyph-name="paste" unicode="&#xe82f;" d="M248 745a31 31 0 0 0-19-39l-34-12a10 10 0 0 1-7-9v-720c0-6 4-11 10-11h604a10 10 0 0 1 11 11v720a10 10 0 0 1-8 9l-34 12a31 31 0 0 0 20 59l34-11a73 73 0 0 0 50-69v-720a73 73 0 0 0-73-73h-604a73 73 0 0 0-73 73v720a73 73 0 0 0 50 69l34 11a31 31 0 0 0 39-20z m44 32c0 40 32 73 73 73h270c41 0 73-33 73-73v-62a73 73 0 0 0-73-73h-270a73 73 0 0 0-73 73z m73 11a10 10 0 0 1-11-11v-62c0-6 5-11 11-11h270a10 10 0 0 1 11 11v62a10 10 0 0 1-11 11z" horiz-adv-x="1000" />

<glyph glyph-name="package" unicode="&#xe830;" d="M537 823v0l343-198c23-13 37-37 37-63v-397a73 73 0 0 0-37-63l-343-199a73 73 0 0 0-73 0l-344 199a73 73 0 0 0-37 63v397c0 26 14 50 37 63l344 198a73 73 0 0 0 73 0z m-42-54l-318-183 323-187 323 187-318 183a10 10 0 0 1-10 0z m36-797l318 184a10 10 0 0 1 5 9v367l-323-187z m-385 560v-367c0-4 2-7 5-9l318-184v373z" horiz-adv-x="1000" />

<glyph glyph-name="north-star" unicode="&#xe831;" d="M521 798a31 31 0 0 1-63 0v-362l-189 190a31 31 0 1 1-45-44l190-190h-362a31 31 0 0 1 0-63h362l-190-189a31 31 0 0 1 45-45l189 190v-362a31 31 0 0 1 63 0v362l190-190a31 31 0 0 1 44 44l-190 190h362a31 31 0 0 1 0 63h-362l190 189a31 31 0 1 1-44 45l-190-190v362z" horiz-adv-x="1000" />

<glyph glyph-name="package-dependents" unicode="&#xe832;" d="M380 823a73 73 0 0 0 73 0l344-198c4-3 8-5 12-9a31 31 0 0 0 23-40c1-4 1-9 1-14v-139a31 31 0 0 0-62 0v109l-323-187v-427a31 31 0 0 0-47-27l-364 211a73 73 0 0 0-37 63v397c0 5 1 10 2 14a31 31 0 0 0 23 40c3 4 7 7 12 9l343 198z m37-423v-1l323 187-318 183a10 10 0 0 1-10 0l-318-183z m-354 132v-367c0-4 2-7 5-9l318-184v373z m827-411l-121 112a31 31 0 1 0 43 46l178-167a31 31 0 0 0 0-45l-178-167a31 31 0 1 0-43 46l121 112h-277a31 31 0 0 0 0 63h277z" horiz-adv-x="1000" />

<glyph glyph-name="move-to-start" unicode="&#xe833;" d="M533 68a31 31 0 0 0-45 0l-260 260a31 31 0 0 0 0 44l260 261a31 31 0 1 0 45-45l-207-207h601a31 31 0 0 0 0-62h-601l207-207a31 31 0 0 0 0-44z m-418 626a31 31 0 0 0 31-31v-625a31 31 0 0 0-63 0v625a31 31 0 0 0 32 31z" horiz-adv-x="1000" />

<glyph glyph-name="move-to-end" unicode="&#xe834;" d="M468 633a31 31 0 0 0 44 0l260-261a31 31 0 0 0 0-44l-260-260a31 31 0 1 0-44 44l207 207h-602a31 31 0 0 0 0 62h602l-207 207a31 31 0 0 0 0 45z m417 61a31 31 0 0 0 32-31v-625a31 31 0 0 0-63 0v625a31 31 0 0 0 31 31z" horiz-adv-x="1000" />

<glyph glyph-name="package-dependencies" unicode="&#xe835;" d="M380 823a73 73 0 0 0 73 0l344-198c4-3 8-5 12-9a31 31 0 0 0 23-40c1-4 1-9 1-14v-139a31 31 0 0 0-62 0v109l-323-187v-427a31 31 0 0 0-47-27l-364 211a73 73 0 0 0-37 63v397c0 5 1 10 2 14a31 31 0 0 0 23 40c3 4 7 7 12 9l343 198z m37-423v-1l323 187-318 183a10 10 0 0 1-10 0l-318-183z m-354 132v-367c0-4 2-7 5-9l318-184v373z m629-411l121 112a31 31 0 0 1-43 46l-178-167a31 31 0 0 1 0-45l178-167a31 31 0 1 1 43 46l-121 112h277a31 31 0 0 1 0 63h-277z" horiz-adv-x="1000" />

<glyph glyph-name="git-pull-request" unicode="&#xe836;" d="M667 48a135 135 0 1 0 271 0 135 135 0 0 0-271 0z m-604 0a135 135 0 1 0 270 0 135 135 0 0 0-270 0z m0 604a135 135 0 1 0 270 0 135 135 0 0 0-270 0z m135 73a73 73 0 1 1 0-146 73 73 0 0 1 0 146z m0-604a73 73 0 1 1 0-146 73 73 0 0 1 0 146z m604 0a73 73 0 1 1 0-146 73 73 0 0 1 0 146z m-243 657a31 31 0 0 0 0-44l-51-51h169a156 156 0 0 0 156-156v-364a31 31 0 0 0-62 0v364a94 94 0 0 1-94 94h-169l51-51a31 31 0 0 0-45-44l-104 104a31 31 0 0 0 0 44l104 104a31 31 0 0 0 45 0z m-361-230a31 31 0 0 0 31-31v-334a31 31 0 0 0-62 0v334a31 31 0 0 0 31 31z" horiz-adv-x="1000" />

<glyph glyph-name="three-bars" unicode="&#xe838;" d="M63 678a47 47 0 0 0 46 47h782a47 47 0 0 0 0-94h-782a47 47 0 0 0-46 47z m0-312a47 47 0 0 0 46 47h782a47 47 0 0 0 0-94h-782a47 47 0 0 0-46 47z m46-266h782a47 47 0 0 0 0-94h-782a47 47 0 0 0 0 94z" horiz-adv-x="1000" />

<glyph glyph-name="file-added" unicode="&#xe839;" d="M125 741c0 60 49 109 109 109h412c29 0 57-11 77-32l182-182c21-21 33-48 33-77v-600a109 109 0 0 0-110-109h-594a109 109 0 0 0-109 109z m109 15a16 16 0 0 1-15-15v-782c0-8 7-15 15-15h594a16 16 0 0 1 16 15v600a16 16 0 0 1-5 11l-182 182a16 16 0 0 1-11 4z m280-235a47 47 0 0 0 48-46l0-94h94a47 47 0 0 0 0-93h-93v-95a47 47 0 0 0-94 0v94l-94 0a47 47 0 0 0-1 93l94 1 0 93a47 47 0 0 0 46 47z" horiz-adv-x="1000" />

<glyph glyph-name="search-2" unicode="&#xe83a;" d="M458 767c-206 0-375-169-375-375 0-207 169-375 375-375 89 0 170 31 234 82l154-154a42 42 0 0 1 59 0 42 42 0 0 1 0 60l-154 153c52 64 82 145 82 234 0 206-168 375-375 375z m0-84c162 0 292-130 292-291 0-80-32-153-84-205a42 42 0 0 1-1-2c-1 0-1-1-2-1-52-52-125-84-205-84-161 0-291 130-291 292 0 161 130 291 291 291z" horiz-adv-x="1000" />
</font>
</defs>
</svg>
